<svg height="24" width="24" xmlns="http://www.w3.org/2000/svg"><path d="M22 17.11c.004.41-.222.79-.585.98l-8.784 4.932a1.102 1.102 0 0 1-1.262 0L2.585 18.09A1.094 1.094 0 0 1 2 17.11v-10c-.004-.41.222-.789.585-.98l8.784-4.932a1.102 1.102 0 0 1 1.262 0l8.784 4.932c.363.191.59.57.585.98v10zM12 3.387L9.903 4.572l6.542 3.8 2.181-1.231L12 3.387zM5.374 7.11L12 10.834l2.18-1.224-6.534-3.8-2.28 1.277.008.023zm-1.155 9.347l6.672 3.753v-7.454L4.219 9.01v7.447zm15.562 0V9.01l-6.672 3.746v7.454l6.672-3.753z"/></svg>
