<svg height="24" width="24" xmlns="http://www.w3.org/2000/svg"><path d="M21.41,11.58 C21.77,11.94 22,12.45 22,13 C22,13.55 21.78,14.05 21.41,14.41 L14.41,21.41 C14.05,21.78 13.55,22 13,22 C12.45,22 11.95,21.78 11.59,21.42 L2.59,12.42 C2.22,12.05 2,11.55 2,11 L2,4 C2,2.9 2.9,2 4,2 L11,2 C11.55,2 12.05,2.22 12.41,2.58 L21.41,11.58 Z M13,20.01 L20,12.99 L11,3.99 L11,4 L4,4 L4,11 L13,20.01 Z M6.5,8 C5.67157288,8 5,7.32842712 5,6.5 C5,5.67157288 5.67157288,5 6.5,5 C7.32842712,5 8,5.67157288 8,6.5 C8,7.32842712 7.32842712,8 6.5,8 Z"/></svg>
