<svg height="24" width="24" xmlns="http://www.w3.org/2000/svg"><path d="M3.456 13.842l-.695-1.398h4.882l-.552-1.398H2.557l-.695-1.39h7.255l-.56-1.399H1.757L1 6.86h3.393A1.867 1.867 0 0 1 6.253 5h11.17v3.718h2.788L23 12.444V17.1h-1.86a2.796 2.796 0 0 1-5.584 0h-3.718a2.796 2.796 0 0 1-5.586 0H4.393v-3.258h-.937zm14.896 4.648a1.398 1.398 0 1 0-1.398-1.398 1.39 1.39 0 0 0 1.398 1.398zm1.39-8.381h-2.32v2.335h4.15l-1.83-2.328v-.007zm-10.7 8.381a1.398 1.398 0 1 0 0-2.796 1.398 1.398 0 0 0 0 2.796z"/></svg>
